<svg viewBox="0 0 24 24" xmlns="http://www.w3.org/2000/svg">
  <rect width="24" height="24" rx="4" fill="#010101"/>
  <!-- cyan shadow -->
  <path d="M19.09 6.29a5.13 5.13 0 01-3.96-4.54V1.5h-3.6v14.44a3.04 3.04 0 01-3.03 2.64 3.04 3.04 0 01-3.03-3.03 3.04 3.04 0 013.03-3.03c.3 0 .58.05.84.12V8.95a6.64 6.64 0 00-.84-.06 6.67 6.67 0 00-6.67 6.67 6.67 6.67 0 006.67 6.67 6.67 6.67 0 006.66-6.67V8.91a8.58 8.58 0 005.03 1.61V6.93a5.17 5.17 0 01-1.1-.64z" fill="#25F4EE" transform="translate(-0.5 0)"/>
  <!-- red shadow -->
  <path d="M19.09 6.29a5.13 5.13 0 01-3.96-4.54V1.5h-3.6v14.44a3.04 3.04 0 01-3.03 2.64 3.04 3.04 0 01-3.03-3.03 3.04 3.04 0 013.03-3.03c.3 0 .58.05.84.12V8.95a6.64 6.64 0 00-.84-.06 6.67 6.67 0 00-6.67 6.67 6.67 6.67 0 006.67 6.67 6.67 6.67 0 006.66-6.67V8.91a8.58 8.58 0 005.03 1.61V6.93a5.17 5.17 0 01-1.1-.64z" fill="#FE2C55" transform="translate(0.5 0)"/>
  <!-- white main -->
  <path d="M19.09 6.29a5.13 5.13 0 01-3.96-4.54V1.5h-3.6v14.44a3.04 3.04 0 01-3.03 2.64 3.04 3.04 0 01-3.03-3.03 3.04 3.04 0 013.03-3.03c.3 0 .58.05.84.12V8.95a6.64 6.64 0 00-.84-.06 6.67 6.67 0 00-6.67 6.67 6.67 6.67 0 006.67 6.67 6.67 6.67 0 006.66-6.67V8.91a8.58 8.58 0 005.03 1.61V6.93a5.17 5.17 0 01-1.1-.64z" fill="#FFFFFF"/>
</svg>
